<svg viewBox="0 0 480 384" xmlns="http://www.w3.org/2000/svg" role="img" aria-label="Shredded Mozzarella">
  <defs>
    <linearGradient id="bg" x1="0" y1="0" x2="1" y2="1">
      <stop offset="0%" stop-color="#F2EAD6"/>
      <stop offset="100%" stop-color="#E4D9BC"/>
    </linearGradient>
  </defs>
  <rect width="480" height="384" fill="url(#bg)"/>
  <rect x="100" y="150" width="60" height="10" rx="5" fill="#FBF7EC" stroke="#C08A2E" stroke-width="2" transform="rotate(-20 130 155)"/><rect x="120" y="187" width="60" height="10" rx="5" fill="#FBF7EC" stroke="#C08A2E" stroke-width="2" transform="rotate(-7 150 192)"/><rect x="140" y="224" width="60" height="10" rx="5" fill="#FBF7EC" stroke="#C08A2E" stroke-width="2" transform="rotate(6 170 229)"/><rect x="160" y="181" width="60" height="10" rx="5" fill="#FBF7EC" stroke="#C08A2E" stroke-width="2" transform="rotate(19 190 186)"/><rect x="180" y="218" width="60" height="10" rx="5" fill="#FBF7EC" stroke="#C08A2E" stroke-width="2" transform="rotate(-8 210 223)"/><rect x="200" y="175" width="60" height="10" rx="5" fill="#FBF7EC" stroke="#C08A2E" stroke-width="2" transform="rotate(5 230 180)"/><rect x="220" y="212" width="60" height="10" rx="5" fill="#FBF7EC" stroke="#C08A2E" stroke-width="2" transform="rotate(18 250 217)"/><rect x="240" y="169" width="60" height="10" rx="5" fill="#FBF7EC" stroke="#C08A2E" stroke-width="2" transform="rotate(-9 270 174)"/><rect x="260" y="206" width="60" height="10" rx="5" fill="#FBF7EC" stroke="#C08A2E" stroke-width="2" transform="rotate(4 290 211)"/><rect x="280" y="163" width="60" height="10" rx="5" fill="#FBF7EC" stroke="#C08A2E" stroke-width="2" transform="rotate(17 310 168)"/><rect x="300" y="200" width="60" height="10" rx="5" fill="#FBF7EC" stroke="#C08A2E" stroke-width="2" transform="rotate(-10 330 205)"/><rect x="320" y="157" width="60" height="10" rx="5" fill="#FBF7EC" stroke="#C08A2E" stroke-width="2" transform="rotate(3 350 162)"/><rect x="340" y="194" width="60" height="10" rx="5" fill="#FBF7EC" stroke="#C08A2E" stroke-width="2" transform="rotate(16 370 199)"/><rect x="360" y="151" width="60" height="10" rx="5" fill="#FBF7EC" stroke="#C08A2E" stroke-width="2" transform="rotate(-11 390 156)"/>
</svg>